<svg xmlns="http://www.w3.org/2000/svg" viewBox="0 0 309.77 72.06"><defs><style>.cls-1{fill:none;stroke:#000;stroke-miterlimit:10;stroke-width:4px;}.cls-2{fill:#000;}</style></defs><g id="Layer_2" data-name="Layer 2"><g id="Layer_1-2" data-name="Layer 1"><polygon class="cls-1" points="22.2 2 16.74 2 16.74 12.04 28.19 12.04 22.2 2"/><polygon class="cls-1" points="38.12 19.33 38.12 14.04 27.19 14.04 13.98 14.04 7.11 4 2 4 2 70.06 6.93 70.06 15.39 56.32 23.84 70.06 28.6 70.06 28.6 55.97 28.6 33.95 38.12 19.33"/><polyline class="cls-1" points="28.6 55.97 47.28 55.97 56.44 70.06 61.37 70.06 61.37 23.73 56.09 23.73 50.62 34.3"/><polyline class="cls-1" points="45.28 55.97 45.28 70.06 40.17 70.06 31.54 55.97"/><path class="cls-1" d="M61.37,34.44H20.81c-3.58,0-6.48-2.08-6.48-4.64"/><path class="cls-2" d="M104,40.6A14.19,14.19,0,1,1,89.84,26.48,14.15,14.15,0,0,1,104,40.6Zm-23,0a8.82,8.82,0,1,0,8.82-8.81A8.82,8.82,0,0,0,81,40.6Z"/><path class="cls-2" d="M122.24,27.13a13.73,13.73,0,0,1,14,13.47,13.73,13.73,0,0,1-14,13.47h-8.35V27.13ZM119.38,49h2.86a8.76,8.76,0,0,0,8.47-8.42,8.76,8.76,0,0,0-8.47-8.42h-2.86Z"/><path class="cls-2" d="M164.8,27.13v4.76L151.45,48.65H164.8v5.42H144V49.31l13.36-16.76H144.24V27.13Z"/><path class="cls-2" d="M180.69,27.13V54.07h-5.5V27.13Z"/><line class="cls-1" x1="143.99" y1="40.47" x2="164.8" y2="40.47"/><path class="cls-2" d="M221.63,29.29l-1.43,2.12a12.75,12.75,0,0,0-7.42-2.35c-6.05.07-12.07,4.26-12.29,11.55.09,6.38,5.2,11.41,12.29,11.56a12.76,12.76,0,0,0,7.42-2.36l1.43,2.12a15.24,15.24,0,0,1-8.85,2.79c-8.93,0-14.84-6.39-14.84-14.11s5.91-14.11,14.84-14.11A15.31,15.31,0,0,1,221.63,29.29Z"/><path class="cls-2" d="M227.52,27.13V51.52h15.31v2.55H225V27.13Z"/><path class="cls-2" d="M249.52,27.13V54.07H247V27.13Z"/><path class="cls-2" d="M256.21,27.13l17,22.64V27.13h2.55V54.07H273.2l-17-22.74V54.07h-2.54V27.13Z"/><path class="cls-2" d="M282.49,27.13V54.07h-2.55V27.13Z"/><path class="cls-2" d="M309.77,29.29l-1.43,2.12a12.76,12.76,0,0,0-7.43-2.35c-6,.07-12.06,4.26-12.28,11.55.08,6.38,5.2,11.41,12.28,11.56a12.76,12.76,0,0,0,7.43-2.36l1.43,2.12a15.27,15.27,0,0,1-8.86,2.79c-8.92,0-14.84-6.39-14.84-14.11S292,26.5,300.91,26.5A15.34,15.34,0,0,1,309.77,29.29Z"/><circle class="cls-2" cx="16.74" cy="22.81" r="3.67"/></g></g></svg>