<svg xmlns="http://www.w3.org/2000/svg" viewBox="0 0 310.68 72.06"><defs><style>.cls-1{fill:none;stroke:#000;stroke-miterlimit:10;stroke-width:4px;}.cls-2{fill:#000;}</style></defs><g id="Layer_2" data-name="Layer 2"><g id="Layer_1-2" data-name="Layer 1"><polygon class="cls-1" points="22.2 2 16.74 2 16.74 12.04 28.19 12.04 22.2 2"/><polygon class="cls-1" points="38.12 19.33 38.12 14.04 27.19 14.04 13.98 14.04 7.11 4 2 4 2 70.06 6.93 70.06 15.39 56.32 23.84 70.06 28.6 70.06 28.6 55.97 28.6 33.95 38.12 19.33"/><polyline class="cls-1" points="28.6 55.97 47.28 55.97 56.44 70.06 61.37 70.06 61.37 23.73 56.09 23.73 50.62 34.3"/><polyline class="cls-1" points="45.28 55.97 45.28 70.06 40.17 70.06 31.54 55.97"/><path class="cls-1" d="M61.37,34.44H20.81c-3.58,0-6.48-2.08-6.48-4.64"/><path class="cls-2" d="M104,40.6A14.19,14.19,0,1,1,89.84,26.48,14.15,14.15,0,0,1,104,40.6Zm-23,0a8.82,8.82,0,1,0,8.82-8.81A8.82,8.82,0,0,0,81,40.6Z"/><path class="cls-2" d="M122.24,27.13a13.73,13.73,0,0,1,14,13.47,13.73,13.73,0,0,1-14,13.47h-8.35V27.13ZM119.38,49h2.86a8.76,8.76,0,0,0,8.47-8.42,8.76,8.76,0,0,0-8.47-8.42h-2.86Z"/><path class="cls-2" d="M164.8,27.13v4.76L151.45,48.65H164.8v5.42H144V49.31l13.36-16.76H144.24V27.13Z"/><path class="cls-2" d="M180.69,27.13V54.07h-5.5V27.13Z"/><line class="cls-1" x1="143.99" y1="40.47" x2="164.8" y2="40.47"/><path class="cls-2" d="M200.48,27.13V51.52h15.31v2.55H197.93V27.13Z"/><path class="cls-2" d="M237,27.13v2.55H222.48v9.64h14.09v2.55H222.48v9.65H237v2.55h-17.1V27.13Z"/><path class="cls-2" d="M253.06,27.13l9.82,26.94h-2.71l-2.66-7.32h-12l-2.67,7.32h-2.7l9.81-26.94ZM246.4,44.21h10.18l-5.09-14Z"/><path class="cls-2" d="M274.22,27.13c5.67,0,10.29,4.14,10.29,9.81a9.78,9.78,0,0,1-8.5,9.67l9.15,7.46h-3.7l-9-7.32h-4v7.32H266V27.13Zm-5.72,2.61V44.2h5.72c4.28,0,7.74-3,7.74-7.26s-3.46-7.27-7.74-7.27H268.5Z"/><path class="cls-2" d="M291.1,27.13l17,22.64V27.13h2.55V54.07H308.1l-17-22.74V54.07h-2.55V27.13Z"/><circle class="cls-2" cx="16.74" cy="22.81" r="3.67"/></g></g></svg>