<svg xmlns="http://www.w3.org/2000/svg" viewBox="0 0 319.78 72.06"><defs><style>.cls-1{fill:none;stroke:#fff;stroke-miterlimit:10;stroke-width:4px;}.cls-2{fill:#fff;}</style></defs><g id="Layer_2" data-name="Layer 2"><g id="Layer_1-2" data-name="Layer 1"><polygon class="cls-1" points="22.2 2 16.74 2 16.74 12.04 28.19 12.04 22.2 2"/><polygon class="cls-1" points="38.12 19.33 38.12 14.04 27.19 14.04 13.98 14.04 7.11 4 2 4 2 70.06 6.93 70.06 15.39 56.32 23.84 70.06 28.6 70.06 28.6 55.97 28.6 33.95 38.12 19.33"/><polyline class="cls-1" points="28.6 55.97 47.28 55.97 56.44 70.06 61.37 70.06 61.37 23.73 56.09 23.73 50.62 34.3"/><polyline class="cls-1" points="45.28 55.97 45.28 70.06 40.17 70.06 31.54 55.97"/><path class="cls-1" d="M61.37,34.44H20.81c-3.58,0-6.48-2.08-6.48-4.64"/><path class="cls-2" d="M104,40.6A14.19,14.19,0,1,1,89.84,26.48,14.15,14.15,0,0,1,104,40.6Zm-23,0a8.82,8.82,0,1,0,8.82-8.81A8.82,8.82,0,0,0,81,40.6Z"/><path class="cls-2" d="M122.24,27.13a13.73,13.73,0,0,1,14,13.47,13.73,13.73,0,0,1-14,13.47h-8.35V27.13ZM119.38,49h2.86a8.76,8.76,0,0,0,8.47-8.42,8.76,8.76,0,0,0-8.47-8.42h-2.86Z"/><path class="cls-2" d="M164.8,27.13v4.76L151.45,48.65H164.8v5.42H144V49.31l13.36-16.76H144.24V27.13Z"/><path class="cls-2" d="M180.69,27.13V54.07h-5.5V27.13Z"/><line class="cls-1" x1="143.99" y1="40.47" x2="164.8" y2="40.47"/><path class="cls-2" d="M222.76,30.15l-1.65,1.9a12.45,12.45,0,0,0-8.33-3c-7,0-12.29,4.5-12.29,11.56,0,6.36,5.45,11.56,12.29,11.56,2.35,0,5.82-.69,7.68-2.36l-.08-8.51h-5.7V38.63h8.23L223,50.8c-2.06,2.23-5.67,3.92-10.24,3.92-8.15,0-14.86-6.3-14.86-14.12s5.92-14.12,14.84-14.12A14.83,14.83,0,0,1,222.76,30.15Z"/><path class="cls-2" d="M229.71,27.13V45.19a7.21,7.21,0,0,0,14.41,0V27.13h2.55V45.19a9.76,9.76,0,0,1-19.51,0V27.13Z"/><path class="cls-2" d="M253.37,27.13V54.07h-2.55V27.13Z"/><path class="cls-2" d="M265.2,27.13a13.47,13.47,0,1,1,0,26.94h-7.73V27.13ZM260,51.52h5.18a10.92,10.92,0,1,0,0-21.84H260Z"/><path class="cls-2" d="M299.37,27.13v2.54H284.83v9.65h14.09v2.55H284.83v9.65h14.54v2.55H282.28V27.13Z"/><path class="cls-2" d="M318.15,28.67l-1.31,2.18A11.28,11.28,0,0,0,311,29.09c-2.76,0-5.36,1.58-5.36,4.35,0,3.58,3.63,4.5,6.16,5.26,3.76,1,7.75,3.23,8,7.93,0,4-3.22,8.09-8.94,8.09a15.28,15.28,0,0,1-8.39-2.64l1.38-2.33a13.7,13.7,0,0,0,6.91,2.2h0c3.74,0,6.24-2.45,6.24-5.32-.05-3.27-3.77-4.85-6.74-5.62-3.42-.91-7.38-2.93-7.38-7.57,0-3.92,3.64-7,8.16-7A13,13,0,0,1,318.15,28.67Z"/><circle class="cls-2" cx="16.74" cy="22.81" r="3.67"/></g></g></svg>