<svg xmlns="http://www.w3.org/2000/svg" viewBox="0 0 343.93 72.06"><defs><style>.cls-1{fill:none;stroke:#fff;stroke-miterlimit:10;stroke-width:4px;}.cls-2{fill:#fff;}</style></defs><g id="Layer_2" data-name="Layer 2"><g id="Layer_1-2" data-name="Layer 1"><polygon class="cls-1" points="22.2 2 16.74 2 16.74 12.04 28.19 12.04 22.2 2"/><polygon class="cls-1" points="38.12 19.33 38.12 14.04 27.19 14.04 13.98 14.04 7.11 4 2 4 2 70.06 6.93 70.06 15.39 56.32 23.84 70.06 28.6 70.06 28.6 55.97 28.6 33.95 38.12 19.33"/><polyline class="cls-1" points="28.6 55.97 47.28 55.97 56.44 70.06 61.37 70.06 61.37 23.73 56.09 23.73 50.62 34.3"/><polyline class="cls-1" points="45.28 55.97 45.28 70.06 40.17 70.06 31.54 55.97"/><path class="cls-1" d="M61.37,34.44H20.81c-3.58,0-6.48-2.08-6.48-4.64"/><path class="cls-2" d="M104,40.6A14.19,14.19,0,1,1,89.84,26.48,14.15,14.15,0,0,1,104,40.6Zm-23,0a8.82,8.82,0,1,0,8.82-8.81A8.82,8.82,0,0,0,81,40.6Z"/><path class="cls-2" d="M122.24,27.13a13.73,13.73,0,0,1,14,13.47,13.73,13.73,0,0,1-14,13.47h-8.35V27.13ZM119.38,49h2.86a8.76,8.76,0,0,0,8.47-8.42,8.76,8.76,0,0,0-8.47-8.42h-2.86Z"/><path class="cls-2" d="M164.8,27.13v4.76L151.45,48.65H164.8v5.42H144V49.31l13.36-16.76H144.24V27.13Z"/><path class="cls-2" d="M180.69,27.13V54.07h-5.5V27.13Z"/><line class="cls-1" x1="143.99" y1="40.47" x2="164.8" y2="40.47"/><path class="cls-2" d="M201.18,27.13l10.11,14.68,10.12-14.68h3.24V54.07H222.1V30.61L211.29,46.3,200.48,30.61V54.07h-2.55V27.13Z"/><path class="cls-2" d="M240.69,27.13l9.81,26.94h-2.7l-2.67-7.32h-12l-2.67,7.32h-2.7l9.82-26.94ZM234,44.21h10.18l-5.09-14Z"/><path class="cls-2" d="M261.84,27.13c5.67,0,10.29,4.14,10.29,9.81a9.77,9.77,0,0,1-8.49,9.67l9.15,7.46h-3.7l-9-7.32h-4v7.32h-2.54V27.13Zm-5.72,2.61V44.2h5.72c4.29,0,7.75-3,7.75-7.26s-3.46-7.27-7.75-7.27h-5.72Z"/><path class="cls-2" d="M278.69,27.13V46.46l15.43-19.33h3.26L286.6,40.64l10.67,13.43H294l-9-11.39-6.28,7.87v3.52h-2.55V27.13Z"/><path class="cls-2" d="M317.57,27.13v2.55H303v9.64h14.09v2.55H303v9.65h14.54v2.55H300.48V27.13Z"/><path class="cls-2" d="M331.47,27.13h12.46v2.54h-9.84v24.4h-2.55V29.67h-9.85V27.13Z"/><circle class="cls-2" cx="16.74" cy="22.81" r="3.67"/></g></g></svg>