<?xml version="1.0" standalone="no"?>
<!DOCTYPE svg PUBLIC "-//W3C//DTD SVG 20010904//EN"
 "http://www.w3.org/TR/2001/REC-SVG-20010904/DTD/svg10.dtd">
<svg version="1.0" xmlns="http://www.w3.org/2000/svg"
 width="471.000000pt" height="471.000000pt" viewBox="0 0 471.000000 471.000000"
 preserveAspectRatio="xMidYMid meet">
<metadata>
Created by potrace 1.11, written by Peter Selinger 2001-2013
</metadata>
<g transform="translate(0.000000,471.000000) scale(0.100000,-0.100000)"
fill="#000000" stroke="none">
<path d="M251 4630 c-31 -8 -69 -24 -86 -34 -44 -29 -105 -88 -105 -103 0 -7
-5 -13 -11 -13 -5 0 -8 -4 -5 -9 4 -5 2 -11 -3 -13 -5 -1 -16 -28 -25 -57 -15
-50 -16 -243 -14 -2060 l3 -2006 25 -55 c27 -61 85 -129 128 -150 15 -8 35
-21 45 -29 9 -8 17 -11 17 -8 0 4 12 1 28 -5 42 -18 4151 -19 4211 -1 82 24
132 61 200 149 16 20 32 54 25 54 -3 0 0 7 7 17 12 13 14 340 17 2027 2 1461
0 2022 -8 2051 -16 55 -33 95 -42 95 -5 0 -8 6 -8 14 0 23 -88 96 -148 124
l-57 26 -2069 0 c-1814 1 -2076 -1 -2125 -14z"/>
</g>
</svg>
